<svg xmlns="http://www.w3.org/2000/svg" version="1.1" xmlns:xlink="http://www.w3.org/1999/xlink" xmlns:svgjs="http://svgjs.dev/svgjs" width="4000" height="4000" preserveAspectRatio="none" viewBox="0 0 4000 4000"><g mask="url(&quot;#SvgjsMask1013&quot;)" fill="none"><rect width="4000" height="4000" x="0" y="0" fill="rgba(220, 236, 245, 1)"></rect><path d="M0,1929.646C354.76,1941.24,643.07,1635.023,882.176,1372.693C1084.366,1150.864,1115.163,839.236,1241.878,567.147C1369.841,292.379,1669.891,66.101,1630.642,-234.451C1591.403,-534.924,1269.963,-701.582,1049.1,-909.05C850.893,-1095.236,662.983,-1294.029,406.486,-1384.365C141.34,-1477.748,-149.681,-1507.52,-418.712,-1426.002C-686.584,-1344.835,-900.765,-1150.748,-1078.397,-934.437C-1252.591,-722.314,-1341.026,-466.742,-1421.855,-204.432C-1516.603,103.049,-1704.07,425.288,-1590.104,726.176C-1475.65,1028.352,-1103.534,1121.216,-845.883,1316.219C-562.418,1530.759,-355.309,1918.034,0,1929.646" fill="#c3deee"></path><path d="M4000 5641.617C4327.069 5644.197 4662.08 5634.317 4946.392 5472.615 5238.891 5306.257 5460.826 5037.064 5600.903 4731.108 5741.063 4424.971 5854.416 4065.307 5734.799 3750.574 5618.698 3445.093 5209.139 3384.693 4995.274 3137.59 4781.213 2890.26 4785.973 2464.85 4494.144 2317.099 4200.159 2168.2560000000003 3841.905 2292.529 3528.761 2395.1059999999998 3222.843 2495.316 2943.815 2659.0299999999997 2726.185 2896.233 2504.276 3138.1 2355.87 3433.096 2282.815 3753.1059999999998 2205.208 4093.054 2151.482 4460.855 2296.6189999999997 4777.908 2441.712 5094.866 2752.248 5300.116 3063.1530000000002 5457.762 3352.857 5604.657999999999 3675.192 5639.055 4000 5641.617" fill="#f5fafc"></path></g><defs><mask id="SvgjsMask1013"><rect width="4000" height="4000" fill="#ffffff"></rect></mask></defs></svg>