<svg xmlns="http://www.w3.org/2000/svg" version="1.1" xmlns:xlink="http://www.w3.org/1999/xlink" xmlns:svgjs="http://svgjs.dev/svgjs" width="1275" height="400" preserveAspectRatio="none" viewBox="0 0 1275 400"><g mask="url(&quot;#SvgjsMask1122&quot;)" fill="none"><rect width="1275" height="400" x="0" y="0" fill="rgba(255, 255, 255, 1)"></rect><path d="M14 400L414 0L603 0L203 400z" fill="url(&quot;#SvgjsLinearGradient1123&quot;)"></path><path d="M333.5 400L733.5 0L904.5 0L504.5 400z" fill="url(&quot;#SvgjsLinearGradient1123&quot;)"></path><path d="M592 400L992 0L1328 0L928 400z" fill="url(&quot;#SvgjsLinearGradient1123&quot;)"></path><path d="M1273 400L873 0L673.5 0L1073.5 400z" fill="url(&quot;#SvgjsLinearGradient1124&quot;)"></path><path d="M982.5 400L582.5 0L459.5 0L859.5 400z" fill="url(&quot;#SvgjsLinearGradient1124&quot;)"></path><path d="M696 400L296 0L-77.5 0L322.5 400z" fill="url(&quot;#SvgjsLinearGradient1124&quot;)"></path><path d="M1035.6022421185746 400L1275 160.60224211857465L1275 400z" fill="url(&quot;#SvgjsLinearGradient1123&quot;)"></path><path d="M0 400L239.39775788142535 400L 0 160.60224211857465z" fill="url(&quot;#SvgjsLinearGradient1124&quot;)"></path></g><defs><mask id="SvgjsMask1122"><rect width="1275" height="400" fill="#ffffff"></rect></mask><linearGradient x1="0%" y1="100%" x2="100%" y2="0%" id="SvgjsLinearGradient1123"><stop stop-color="rgba(77, 95, 125, 0.2)" offset="0"></stop><stop stop-opacity="0" stop-color="rgba(77, 95, 125, 0.2)" offset="0.66"></stop></linearGradient><linearGradient x1="100%" y1="100%" x2="0%" y2="0%" id="SvgjsLinearGradient1124"><stop stop-color="rgba(77, 95, 125, 0.2)" offset="0"></stop><stop stop-opacity="0" stop-color="rgba(77, 95, 125, 0.2)" offset="0.66"></stop></linearGradient></defs></svg>